# xmcd CD database file
#
# Track frame offsets:
#	150
#	13861
#	25896
#	41364
#	56517
#	67457
#	86429
#	96967
#	112250
#	128363
#	139697
#	152824
#	166280
#	177278
#	192274
#	207156
#	221238
#	233149
#
# Disc length: 3356 seconds
#
# Revision: 0
# Processed by: cddbd v1.5.2PL0 Copyright (c) Steve Scherf et al.
# Submitted via: CDex 1.51
#
DISCID=010d1a12
DTITLE=Kenny Rogers - Me And Bobby McGee
DYEAR=1900
DGENRE=Country
TTITLE0=Ruby, Don't Take Your Love To Town
TTITLE1=Me and Bobby McGee
TTITLE2=For The Good Times
TTITLE3=Just Dropped In
TTITLE4=She Even Woke Up To Say Goodbye
TTITLE5=The King Of Oak Street
TTITLE6=Ticket To Nowhere
TTITLE7=Tell ItAll Brother
TTITLE8=The Way It Used To Be
TTITLE9=Hurry Up Love
TTITLE10=Run Through Your Mind
TTITLE11=Sleep Comes Easy
TTITLE12=Always Leaving, Always Gone
TTITLE13=Heed The Call
TTITLE14=Church Without A Name
TTITLE15=But You Know I love You
TTITLE16=A Poem For My Little Lady
TTITLE17=I Believe In Music
EXTD=
EXTT0=
EXTT1=
EXTT2=
EXTT3=
EXTT4=
EXTT5=
EXTT6=
EXTT7=
EXTT8=
EXTT9=
EXTT10=
EXTT11=
EXTT12=
EXTT13=
EXTT14=
EXTT15=
EXTT16=
EXTT17=
PLAYORDER=
